G04*
G04 #@! TF.GenerationSoftware,Altium Limited,Altium Designer,26.1.1 (7)*
G04*
G04 Layer_Color=65535*
%FSLAX25Y25*%
%MOIN*%
G70*
G04*
G04 #@! TF.SameCoordinates,F1EE692E-0444-4D6D-8D4C-79967635CD39*
G04*
G04*
G04 #@! TF.FilePolarity,Positive*
G04*
G01*
G75*
%ADD10C,0.00787*%
%ADD11C,0.00550*%
D10*
X2913Y35354D02*
X20000D01*
X2913Y4646D02*
X20000D01*
Y35354D01*
X73898Y25266D02*
Y27234D01*
X86102Y25266D02*
Y27234D01*
X43898Y25266D02*
Y27234D01*
X56102Y25266D02*
Y27234D01*
D11*
X24616Y37650D02*
Y36150D01*
X24783Y35650D01*
X24950Y35484D01*
X25283Y35317D01*
X25783D01*
X26116Y35484D01*
X26283Y35650D01*
X26449Y36150D01*
Y37650D01*
X22950D01*
X25783Y34534D02*
X25949Y34201D01*
X26449Y33701D01*
X22950D01*
X92816Y32201D02*
X93149Y32367D01*
X93483Y32700D01*
X93649Y33034D01*
Y33700D01*
X93483Y34034D01*
X93149Y34367D01*
X92816Y34533D01*
X92316Y34700D01*
X91483D01*
X90983Y34533D01*
X90650Y34367D01*
X90317Y34034D01*
X90150Y33700D01*
Y33034D01*
X90317Y32700D01*
X90650Y32367D01*
X90983Y32201D01*
X92816Y31051D02*
X92983D01*
X93316Y30884D01*
X93483Y30718D01*
X93649Y30384D01*
Y29718D01*
X93483Y29384D01*
X93316Y29218D01*
X92983Y29051D01*
X92650D01*
X92316Y29218D01*
X91816Y29551D01*
X90150Y31217D01*
Y28885D01*
X62816Y32201D02*
X63149Y32367D01*
X63483Y32700D01*
X63649Y33034D01*
Y33700D01*
X63483Y34034D01*
X63149Y34367D01*
X62816Y34533D01*
X62316Y34700D01*
X61483D01*
X60983Y34533D01*
X60650Y34367D01*
X60317Y34034D01*
X60150Y33700D01*
Y33034D01*
X60317Y32700D01*
X60650Y32367D01*
X60983Y32201D01*
X62983Y31217D02*
X63149Y30884D01*
X63649Y30384D01*
X60150D01*
M02*
